<?xml version="1.0" ?><svg enable-background="new 0 0 512 512" id="Layer_1" version="1.1" viewBox="0 0 512 512" xml:space="preserve" xmlns="http://www.w3.org/2000/svg" xmlns:xlink="http://www.w3.org/1999/xlink"><g><g><linearGradient gradientUnits="userSpaceOnUse" id="SVGID_1_" x1="-0.0000027" x2="512" y1="256" y2="256"><stop offset="0" style="stop-color:#B49A85"/><stop offset="0.0650802" style="stop-color:#B0957F"/><stop offset="0.2856463" style="stop-color:#A88A71"/><stop offset="0.5538635" style="stop-color:#A38369"/><stop offset="1" style="stop-color:#A18166"/></linearGradient><circle cx="256" cy="256" fill="url(#SVGID_1_)" r="256"/><linearGradient gradientUnits="userSpaceOnUse" id="SVGID_2_" x1="42.6666641" x2="469.3333435" y1="256.0005188" y2="256.0005188"><stop offset="0" style="stop-color:#A18166"/><stop offset="0.4461364" style="stop-color:#A38369"/><stop offset="0.7143537" style="stop-color:#A88A71"/><stop offset="0.9349198" style="stop-color:#B0957F"/><stop offset="1" style="stop-color:#B49A85"/></linearGradient><path d="M256,469.3338623c-117.631012,0-213.3333435-95.7018738-213.3333435-213.3333435    c0-117.6309204,95.7023239-213.333313,213.3333435-213.333313c117.6362,0,213.3333435,95.7024002,213.3333435,213.333313    C469.3333435,373.6319885,373.6362,469.3338623,256,469.3338623z" fill="url(#SVGID_2_)"/></g><g><path d="M312.7503357,178.8933258c0-8.28479-6.7157593-15-15-15H230.250061c-8.2837372,0-15,6.71521-15,15    v9.8058777h97.5002747V178.8933258z" opacity="0.3"/><path d="M144,198.7002716v22.5503998l45.3044586,59.3434753    c1.8800049,2.4559937,4.8517303,3.9258423,7.9472046,3.9258423h56.165329v-9.543457h21.1664124v9.543457h56.1669312    c3.095459,0,6.0645142-1.4698486,7.944519-3.9311829L384,221.3621368v-22.6618652H144z" opacity="0.3"/><path d="M330.7503357,294.519989h-56.1669312v2.9562683c0,5.8458862-4.7380676,10.5834656-10.5834045,10.5834656    c-5.8448792,0-10.5830078-4.7375793-10.5830078-10.5834656v-2.9562683h-56.165329    c-6.1888123,0-12.1290741-2.9349365-15.8933411-7.8565369L144,237.7279968v126.3786621h240V237.8154602l-37.361145,48.8479919    C342.8793945,291.5802612,336.941803,294.519989,330.7503357,294.519989z" opacity="0.3"/></g><g><path d="M304.7503357,170.8933258c0-8.28479-6.7157593-15-15-15H222.250061c-8.2837372,0-15,6.71521-15,15    v9.8058777h97.5002747V170.8933258z" fill="#FFFFFF"/><path d="M136,190.7002716v22.5503998l45.3044586,59.3434753    c1.8800049,2.4559937,4.8517303,3.9258423,7.9472046,3.9258423h56.165329v-9.543457h21.1664124v9.543457h56.1669312    c3.095459,0,6.0645142-1.4698486,7.944519-3.9311829L376,213.3621368v-22.6618652H136z" fill="#FFFFFF"/><path d="M322.7503357,286.519989h-56.1669312v2.9562683c0,5.8458862-4.7380676,10.5834656-10.5834045,10.5834656    c-5.8448792,0-10.5830078-4.7375793-10.5830078-10.5834656v-2.9562683h-56.165329    c-6.1888123,0-12.1290741-2.9349365-15.8933411-7.8565369L136,229.7279968v126.3786621h240V229.8154602l-37.361145,48.8479919    C334.8793945,283.5802612,328.941803,286.519989,322.7503357,286.519989z" fill="#FFFFFF"/></g></g></svg>